<svg width="60" height="46" viewBox="0 0 60 46" fill="none" xmlns="http://www.w3.org/2000/svg">
<path d="M60 0.5L58.1425 5.5H53.32L44.635 35.5H11.5375L0 8H42.03L40.62 13H7.52L14.8625 30.5H40.9325L49.5125 0.5H60ZM21.25 38C19.18 38 17.5 39.68 17.5 41.75C17.5 43.8225 19.18 45.5 21.25 45.5C23.32 45.5 25 43.8225 25 41.75C25 39.68 23.32 38 21.25 38ZM38.5 20.5L33.75 38C31.68 38 30 39.6775 30 41.75C30 43.8225 31.68 45.5 33.75 45.5C35.82 45.5 37.5 43.8225 37.5 41.75C37.5 39.68 35.82 38 33.75 38L38.5 20.5Z" fill="white"/>
</svg>
